<svg xmlns="http://www.w3.org/2000/svg" viewBox="0 0 1883.26 1595.84"><defs><style>.cls-1,.cls-2{stroke:#000;stroke-miterlimit:10;}.cls-1{stroke-width:4px;}.cls-2{font-size:776.75px;stroke-width:6px;font-family:hellogalleria;}</style></defs><g id="Camada_2" data-name="Camada 2"><g id="Camada_1-2" data-name="Camada 1"><path class="cls-1" d="M1163,1572.71l-43.06,2.87-6.23,17.1-14.43,1,30.62-82.57,14.89-1,41.19,77.78-14.55,1Zm-38.72-9.61,32.76-2.18-18.91-36.82Z"/><path class="cls-1" d="M1317.28,1475.49l22.63,77.08-11,3.23-2.25-7.23c-2.63,6.51-9,11.84-17.55,14.36-15.42,4.52-30-3.38-35.1-20.56s3-31.74,18.42-36.26c7.82-2.3,15.31-1.63,20.9,1.52l-8.37-28.52Zm2.31,53.5c-3-10.13-11.87-15.17-21.67-12.3s-14.56,11.93-11.58,22.06,11.87,15.18,21.67,12.3S1322.57,1539.12,1319.59,1529Z"/><path class="cls-1" d="M1463.56,1434.25l5.68,61.31-12.13,6.52-48.06-38.56,12.34-6.63,16.15,13.35,19.34,16.85-3.26-25.48-2.19-20.84Z"/><path class="cls-1" d="M1552.8,1408.08c-10.84-13.08-9.8-30.34,4.43-42.14s31.3-9.55,42.14,3.53,9.8,30.35-4.34,42.07S1563.64,1421.16,1552.8,1408.08Zm36.68-30.41c-6.3-7.59-16.65-9.46-24.78-2.72s-8.3,17.33-2,24.92,16.64,9.47,24.86,2.65S1595.78,1385.28,1589.48,1377.67Z"/><path class="cls-1" d="M1712.22,1277.27c8.26-5,16.34-5,22.89.2,11.22,9,11,24-.43,38.27-11.67,14.63-27.1,17.59-38.61,7.53l7.88-9.87c6.41,5.4,14.94,3.54,21.66-4.89,6.45-8.07,7-16.46,1.32-21s-13-2.14-19.56,6.12c-11.74,14.71-27.8,17.17-41.26,6.43-12.92-10.31-14.4-27.78-3.44-41.51a30.17,30.17,0,0,1,12.55-9.66l-2.4-11.16,11.36-2.83,2.24,11.91c7.41-.26,12.57,1.37,17.77,5.52C1712.09,1258.66,1714.86,1267.33,1712.22,1277.27Zm-16-14.86c-7.9-6.3-17.56-5.05-24.22,3.29s-5.73,18,2.17,24.34,17.45,4.82,24-3.43S1704,1268.64,1696.18,1262.41Z"/><path class="cls-1" d="M1759.29,1104.53l50.69,25.41-5.15,10.27-6.82-3.3c3,6.37,2.55,14.63-1.36,22.43-7.46,14.88-23.48,19.68-39.07,11.87s-21.33-23.54-13.87-38.41c4-7.9,10.28-13.08,17.16-14.51l-6.72-3.5Zm19.58,24.2c-9.44-4.73-19.19-1.66-23.77,7.47s-1.2,18.78,8.24,23.52,19.19,1.66,23.77-7.47S1788.31,1133.46,1778.87,1128.73Z"/><path class="cls-1" d="M1784.92,952.18l77.79,20.1-2.87,11.11-7.36-1.78c4.24,5.6,5.57,13.77,3.33,22.44-4,15.56-18.31,24.08-35.65,19.6s-25.72-18.86-21.7-34.42c2-7.89,6.46-14,12-17.17l-28.79-7.43Zm47.13,25.45c-10.23-2.64-19.12,2.42-21.68,12.31s2.78,18.62,13,21.26,19.12-2.41,21.68-12.31S1842.27,980.28,1832.05,977.63Z"/><path class="cls-1" d="M1850.27,866.28c-17-.77-29.06-13.15-28.22-31.61s14-29.59,31-28.83,29,13.15,28.22,31.5S1867.24,867,1850.27,866.28Zm2.15-47.59c-9.87-.45-18.2,6-18.67,16.51s7.23,17.79,17.1,18.23,18.19-5.95,18.67-16.62S1862.28,819.13,1852.42,818.69Z"/><path d="M522.87,1367.47C371.57,1216.17,288.25,1015,288.25,801.05s83.32-415.13,234.62-566.43S875.33,0,1089.3,0s415.12,83.32,566.42,234.62l-13.53,13.53c-304.87-304.87-800.92-304.87-1105.79,0-147.69,147.68-229,344-229,552.9s81.33,405.21,229,552.89Z"/><text class="cls-2" transform="translate(3 891.34) scale(0.62 1)">adss</text></g></g></svg>